PathFileType	4	(X/Y/Z)	C:\Users\86182\Documents\cortex\Trimmed_M1_H14.trc
DataRate	CameraRate	NumFrames	NumMarkers	Units	OrigDataRate	OrigDataStartFrame	OrigNumFrames
100.00	100.00	       154	2	mm	100.00	541	       901
Frame#	Time	gripper			box			
		X1	Y1	Z1	X2	Y2	Z2	

541	5.400	226.10809	206.35576	285.37375	230.77565	205.65685	134.88464	
542	5.410	226.10809	206.35576	285.37375	230.70432	205.64899	134.93224	
543	5.420	226.15636	206.37900	285.37378	230.61340	205.63680	134.98628	
544	5.430	226.11755	206.37524	285.37741	230.75713	205.64702	134.90176	
545	5.440	226.10809	206.35576	285.37375	230.66536	205.66124	134.94418	
546	5.450	226.13452	206.37596	285.37558	230.72743	205.66412	134.90520	
547	5.460	226.10809	206.35576	285.37375	230.72278	205.68369	134.89340	
548	5.470	226.02251	206.36719	285.38657	230.63478	205.68805	134.94218	
549	5.480	225.99437	206.39171	285.39590	230.71100	205.64442	134.92839	
550	5.490	226.04703	206.36391	285.38290	230.51241	205.71565	134.98528	
551	5.500	226.05930	206.36227	285.38107	230.57472	205.70599	134.95647	
552	5.510	226.07620	206.36295	285.37930	230.77054	205.66408	134.88332	
553	5.520	226.09595	206.35738	285.37558	230.67393	205.69217	134.92407	
554	5.530	226.09595	206.35738	285.37558	230.79875	205.66911	134.86331	
555	5.540	226.02251	206.36719	285.38657	230.56635	205.67896	134.98070	
556	5.550	226.10809	206.35576	285.37375	230.79875	205.66911	134.86331	
557	5.560	226.10809	206.35576	285.37375	230.61586	205.64923	134.97588	
558	5.570	226.10809	206.35576	285.37375	230.67374	205.69107	134.91429	
559	5.580	226.11771	206.36038	285.37375	230.78494	205.66179	134.87607	
560	5.590	226.12738	206.36505	285.37375	230.71326	205.68562	134.90189	
561	5.600	226.08380	206.35899	285.37738	230.58916	205.70470	134.95807	
562	5.610	226.08582	206.36758	285.37927	230.55022	205.68532	134.99194	
563	5.620	226.08380	206.35899	285.37738	230.46014	205.71475	135.01996	
564	5.630	226.07144	206.36066	285.37927	230.65921	205.69339	134.92159	
565	5.640	226.09529	206.38716	285.38293	230.39244	205.73074	135.03978	
566	5.650	226.04703	206.36391	285.38290	230.31677	205.72792	135.09676	
567	5.660	226.11032	206.36430	285.37561	230.26985	205.72482	135.11717	
568	5.670	226.10809	206.35576	285.37375	230.07153	205.74667	135.22179	
569	5.680	226.04703	206.36391	285.38290	230.32066	205.70747	135.10132	
570	5.690	226.07144	206.36066	285.37927	230.38457	205.71696	135.06131	
571	5.700	226.10809	206.35576	285.37375	230.18707	205.75066	135.14986	
572	5.710	225.89836	206.38377	285.40524	230.14407	205.76404	135.16904	
573	5.720	225.96063	206.37546	285.39590	230.25659	205.72403	135.12843	
574	5.730	225.91086	206.38210	285.40335	230.31401	205.73039	135.08575	
575	5.740	225.92326	206.38045	285.40152	230.41988	205.71759	135.03833	
576	5.750	225.96063	206.37546	285.39590	230.45744	205.72543	135.02185	
577	5.760	225.83539	206.39218	285.41467	230.52017	205.71297	134.99840	
578	5.770	225.95981	206.39037	285.39966	230.39806	205.73390	135.04288	
579	5.780	225.99776	206.37050	285.39029	230.40565	205.73312	135.04289	
580	5.790	226.05930	206.36227	285.38107	230.69615	205.67854	134.91383	
581	5.800	226.02440	206.37578	285.38849	230.51390	205.70403	135.00368	
582	5.810	226.01003	206.36885	285.38849	230.68274	205.69034	134.91597	
583	5.820	226.16611	206.38370	285.37378	230.60561	205.66374	134.97319	
584	5.830	226.05930	206.36227	285.38107	230.64883	205.64142	134.96751	
585	5.840	226.08380	206.35899	285.37738	230.80333	205.67154	134.85909	
586	5.850	226.04703	206.36391	285.38290	230.63391	205.64664	134.96930	
587	5.860	226.01003	206.36885	285.38849	230.69720	205.68124	134.90886	
588	5.870	226.07144	206.36066	285.37927	230.48645	205.65915	135.03802	
589	5.880	225.94814	206.37712	285.39780	230.56635	205.67896	134.98070	
590	5.890	226.03477	206.36555	285.38477	230.63338	205.69492	134.94150	
591	5.900	226.04703	206.36391	285.38290	230.56377	205.67630	134.98523	
592	5.910	225.93576	206.37878	285.39963	230.61133	205.70172	134.95186	
593	5.920	225.96063	206.37546	285.39590	230.60655	205.66656	134.96822	
594	5.930	225.97301	206.37381	285.39404	230.55170	205.69379	134.97774	
595	5.940	225.96063	206.37546	285.39590	230.63406	205.69768	134.93675	
596	5.950	225.99776	206.37050	285.39029	230.63702	205.67825	134.94815	
597	5.960	226.02440	206.37578	285.38849	230.78276	205.67152	134.87013	
598	5.970	225.97301	206.37381	285.39404	230.65994	205.68375	134.92705	
599	5.980	226.01003	206.36885	285.38849	230.69008	205.68861	134.90732	
600	5.990	226.07144	206.36066	285.37927	230.76176	205.64949	134.89748	
601	6.000	226.02251	206.36719	285.38657	230.56667	205.68283	134.98494	
602	6.010	226.10809	206.35576	285.37375	230.62885	205.67607	134.95172	
603	6.020	226.10809	206.35576	285.37375	230.52596	205.64777	135.03473	
604	6.030	226.10809	206.35576	285.37375	230.57220	205.69194	134.98001	
605	6.040	226.05930	206.36227	285.38107	230.65536	205.68132	134.93129	
606	6.050	226.05930	206.36227	285.38107	230.51244	205.71278	134.98978	
607	6.060	226.11771	206.36038	285.37375	230.75511	205.67880	134.87962	
608	6.070	225.97301	206.37381	285.39404	230.51030	205.68512	135.01469	
609	6.080	226.04179	206.37648	285.38657	230.46678	205.72365	135.01465	
610	6.090	226.01003	206.36885	285.38849	230.60667	205.69540	134.95190	
611	6.100	225.96063	206.37546	285.39590	230.52911	205.71313	134.97813	
612	6.110	226.01003	206.36885	285.38849	230.61716	205.69736	134.94843	
613	6.120	225.97501	206.38239	285.39594	230.51801	205.71317	134.99826	
614	6.130	226.01003	206.36885	285.38849	230.41565	205.70549	135.04823	
615	6.140	226.03477	206.36555	285.38477	230.52486	205.69821	134.99254	
616	6.150	226.10809	206.35576	285.37375	230.62640	205.69833	134.93559	
617	6.160	226.10809	206.35576	285.37375	230.53297	205.65877	135.01576	
618	6.170	226.10809	206.35576	285.37375	230.57446	205.69073	134.97137	
619	6.180	226.08380	206.35899	285.37738	230.54721	205.69229	134.99081	
620	6.190	225.97301	206.37381	285.39404	230.64793	205.65407	134.95634	
621	6.200	226.02440	206.37578	285.38849	230.58670	205.67615	134.97430	
622	6.210	226.08858	206.36130	285.37741	230.62640	205.69833	134.93559	
623	6.220	226.02251	206.36719	285.38657	230.35533	205.73405	135.06572	
624	6.230	225.86063	206.38881	285.41092	230.23598	205.74023	135.13237	
625	6.240	225.99229	206.38309	285.39404	230.67921	205.69063	134.91528	
626	6.250	226.10809	206.35576	285.37375	230.34389	205.71980	135.07985	
627	6.260	226.08858	206.36130	285.37741	230.32269	205.71478	135.10661	
628	6.270	226.08380	206.35899	285.37738	230.34064	205.73932	135.06857	
629	6.280	226.10809	206.35576	285.37375	230.25352	205.74356	135.11702	
630	6.290	226.10809	206.35576	285.37375	230.46486	205.71429	135.02016	
631	6.300	226.03477	206.36555	285.38477	230.51881	205.67467	135.02126	
632	6.310	226.10809	206.35576	285.37375	230.63158	205.67303	134.95726	
633	6.320	226.02251	206.36719	285.38657	230.56873	205.69514	134.97484	
634	6.330	226.09595	206.35738	285.37558	230.69510	205.66899	134.91896	
635	6.340	226.07144	206.36066	285.37927	230.63600	205.69751	134.93700	
636	6.350	226.11771	206.36038	285.37375	230.64630	205.66107	134.95569	
637	6.360	226.07144	206.36066	285.37927	230.53500	205.69630	134.98485	
638	6.370	226.10809	206.35576	285.37375	230.50179	205.71562	135.00519	
639	6.380	226.10034	206.37457	285.37927	230.45055	205.71945	135.02289	
640	6.390	226.10809	206.35576	285.37375	230.69008	205.68861	134.90732	
641	6.400	226.01213	206.37741	285.39032	230.55441	205.70982	134.97180	
642	6.410	226.06407	206.36458	285.38110	230.50491	205.71729	134.99294	
643	6.420	226.10809	206.35576	285.37375	230.72937	205.68318	134.89500	
644	6.430	225.94814	206.37712	285.39780	230.62447	205.69850	134.93527	
645	6.440	226.05930	206.36227	285.38107	230.62221	205.69019	134.94975	
646	6.450	226.04703	206.36391	285.38290	230.69008	205.68861	134.90732	
647	6.460	225.94814	206.37712	285.39780	230.51363	205.68095	135.01117	
648	6.470	225.99776	206.37050	285.39029	230.63223	205.69783	134.93642	
649	6.480	226.07144	206.36066	285.37927	230.44795	205.72263	135.01839	
650	6.490	225.99776	206.37050	285.39029	230.51071	205.71764	135.00122	
651	6.500	225.93576	206.37878	285.39963	230.47215	205.70984	135.01715	
652	6.510	226.08493	206.41249	285.39035	230.58720	205.66640	134.97990	
653	6.520	225.96063	206.37546	285.39590	230.69543	205.68819	134.90837	
654	6.530	226.02251	206.36719	285.38657	230.46773	205.68225	135.04198	
655	6.540	225.97301	206.37381	285.39404	230.49709	205.69885	135.00330	
656	6.550	225.99776	206.37050	285.39029	230.59543	205.70313	134.94987	
657	6.560	226.03212	206.37181	285.38657	230.62050	205.67397	134.95534	
658	6.570	226.10809	206.35576	285.37375	230.54721	205.69229	134.99081	
659	6.580	226.09595	206.35738	285.37558	230.57076	205.70735	134.96483	
660	6.590	226.15150	206.39160	285.37741	230.68565	205.63908	134.94949	
661	6.600	226.04703	206.36391	285.38290	230.55283	205.70041	134.97714	
662	6.610	226.10809	206.35576	285.37375	230.53215	205.67828	135.00438	
663	6.620	226.12247	206.36269	285.37378	230.71100	205.64442	134.92839	
664	6.630	226.05930	206.36227	285.38107	230.42212	205.73064	135.03587	
665	6.640	226.10809	206.35576	285.37375	230.57364	205.67152	134.98224	
666	6.650	226.08380	206.35899	285.37738	230.69839	205.66875	134.91978	
667	6.660	226.03477	206.36555	285.38477	230.46510	205.71338	135.01227	
668	6.670	226.02180	206.38208	285.39032	230.61169	205.67580	134.96353	
669	6.680	226.10809	206.35576	285.37375	230.43134	205.72888	135.02870	
670	6.690	226.02727	206.36948	285.38660	230.71684	205.67854	134.90273	
671	6.700	226.10809	206.35576	285.37375	230.41222	205.73164	135.03577	
672	6.710	226.01003	206.36885	285.38849	230.38966	205.70308	135.06393	
673	6.720	226.05930	206.36227	285.38107	230.44662	205.68227	135.05330	
674	6.730	226.05930	206.36227	285.38107	230.45975	205.72520	135.02194	
675	6.740	226.01003	206.36885	285.38849	230.54462	205.68965	134.99530	
676	6.750	226.10072	206.35968	285.37561	230.50533	205.67007	135.02950	
677	6.760	226.10809	206.35576	285.37375	230.56776	205.68845	134.97543	
678	6.770	226.16119	206.38133	285.37378	230.45872	205.68019	135.04597	
679	6.780	226.09595	206.35738	285.37558	230.76642	205.65196	134.89319	
680	6.790	226.10809	206.35576	285.37375	230.73061	205.66389	134.90607	
681	6.800	226.08380	206.35899	285.37738	230.68037	205.64917	134.94254	
682	6.810	226.10809	206.35576	285.37375	230.78734	205.67395	134.86589	
683	6.820	226.07144	206.36066	285.37927	230.64507	205.67363	134.94479	
684	6.830	226.05882	206.37714	285.38477	230.60976	205.67596	134.96327	
685	6.840	226.10809	206.35576	285.37375	230.59409	205.69368	134.95506	
686	6.850	226.04655	206.37877	285.38660	230.57912	205.69319	134.96710	
687	6.860	225.97301	206.37381	285.39404	230.55803	205.70851	134.96358	
688	6.870	225.97301	206.37381	285.39404	230.61978	205.69997	134.94394	
689	6.880	226.01962	206.37349	285.38849	230.58826	205.69806	134.95862	
690	6.890	226.01003	206.36885	285.38849	230.75511	205.67880	134.87962	
691	6.900	226.03477	206.36555	285.38477	230.75043	205.65437	134.89999	
692	6.910	226.07109	206.37550	285.38293	230.78952	205.66422	134.87183	
693	6.920	226.10809	206.35576	285.37375	230.77440	205.67615	134.87363	
694	6.930	226.10809	206.35576	285.37375	230.74774	205.64206	134.91040	
